<?xml version="1.0" standalone="no"?>
<!DOCTYPE svg PUBLIC "-//W3C//DTD SVG 20010904//EN"
 "http://www.w3.org/TR/2001/REC-SVG-20010904/DTD/svg10.dtd">
<svg version="1.0" xmlns="http://www.w3.org/2000/svg"
 width="456.000000pt" height="456.000000pt" viewBox="0 0 456.000000 456.000000"
 preserveAspectRatio="xMidYMid meet">

<g transform="translate(0.000000,456.000000) scale(0.100000,-0.100000)"
fill="#000000" stroke="none">
<path d="M2172 4549 c-109 -13 -187 -36 -289 -84 -117 -55 -170 -92 -262 -179
-90 -87 -148 -167 -201 -277 -98 -205 -103 -256 -98 -1149 l4 -715 26 -95 c48
-177 124 -313 245 -437 128 -130 287 -222 459 -265 127 -32 333 -31 454 1 391
104 675 428 721 824 7 60 9 347 7 827 l-4 735 -26 95 c-50 183 -132 322 -265
451 -210 204 -492 303 -771 268z m253 -384 c138 -36 271 -132 347 -249 21 -33
49 -95 63 -138 25 -78 25 -84 25 -434 l0 -354 -41 0 c-50 0 -74 -13 -93 -48
l-14 -27 -6 45 c-3 25 -13 111 -21 191 -24 228 -53 313 -116 339 -25 11 -36
11 -63 -3 -61 -29 -83 -109 -115 -427 -35 -335 -61 -500 -80 -500 -15 0 -51
145 -76 305 -55 353 -64 391 -101 435 -53 62 -125 28 -158 -75 -8 -27 -27
-131 -41 -230 -35 -250 -33 -246 -60 -147 -31 117 -48 136 -119 140 l-56 3 0
347 c0 276 3 360 15 405 53 202 216 367 417 421 71 20 219 20 293 1z m150
-1103 c20 -198 31 -246 62 -282 45 -54 120 -34 162 42 24 42 38 58 54 58 4 0
7 -156 7 -346 0 -375 -4 -414 -57 -518 -153 -303 -530 -412 -822 -239 -126 75
-229 213 -266 358 -20 79 -23 745 -2 745 26 0 36 -18 57 -100 28 -110 43 -145
76 -175 58 -54 129 -15 158 86 9 30 27 135 41 233 14 99 27 181 28 183 2 1 12
-50 21 -115 31 -205 65 -379 88 -439 44 -120 134 -168 197 -105 60 59 85 174
126 559 14 133 28 257 32 275 7 33 7 32 14 -16 4 -27 15 -119 24 -204z"/>
<path d="M738 2943 c-14 -9 -31 -27 -37 -40 -18 -38 -14 -706 4 -845 89 -677
617 -1233 1287 -1355 l98 -18 0 -152 0 -153 -200 0 c-213 0 -257 -8 -279 -48
-14 -26 -14 -257 -1 -283 27 -49 27 -49 670 -49 667 0 648 -2 676 65 19 46 19
204 -1 251 -24 57 -54 64 -285 64 l-200 0 0 153 0 152 113 22 c156 31 251 63
402 138 443 219 751 620 857 1113 19 87 21 141 25 511 4 327 2 420 -8 439 -23
41 -59 52 -174 52 -119 0 -155 -12 -173 -57 -7 -18 -13 -168 -15 -418 -5 -425
-7 -449 -69 -623 -59 -169 -142 -304 -267 -435 -461 -485 -1233 -505 -1718
-44 -182 173 -297 381 -359 652 -13 56 -17 147 -21 455 -2 212 -6 395 -9 408
-2 12 -19 31 -37 42 -44 27 -237 29 -279 3z"/>
</g>
<style>@media (prefers-color-scheme: light) { :root { filter: none; } }
@media (prefers-color-scheme: dark) { :root { filter: invert(100%); } }
</style>
</svg>
